<?xml version="1.0" encoding="UTF-8" standalone="no"?>
<!-- Created with Inkscape (http://www.inkscape.org/) -->

<svg
   xmlns:dc="http://purl.org/dc/elements/1.1/"
   xmlns:cc="http://creativecommons.org/ns#"
   xmlns:rdf="http://www.w3.org/1999/02/22-rdf-syntax-ns#"
   xmlns:svg="http://www.w3.org/2000/svg"
   xmlns="http://www.w3.org/2000/svg"
   xmlns:sodipodi="http://sodipodi.sourceforge.net/DTD/sodipodi-0.dtd"
   xmlns:inkscape="http://www.inkscape.org/namespaces/inkscape"
   width="210mm"
   height="297mm"
   viewBox="0 0 744.09448819 1052.3622047"
   id="svg2"
   version="1.1"
   inkscape:version="0.91 r13725"
   sodipodi:docname="kontrareturBanner.svg">
  <defs
     id="defs4" />
  <sodipodi:namedview
     id="base"
     pagecolor="#ffffff"
     bordercolor="#666666"
     borderopacity="1.0"
     inkscape:pageopacity="0.0"
     inkscape:pageshadow="2"
     inkscape:zoom="1.1530205"
     inkscape:cx="352.28526"
     inkscape:cy="800.71718"
     inkscape:document-units="px"
     inkscape:current-layer="layer2"
     showgrid="false"
     inkscape:window-width="1920"
     inkscape:window-height="1027"
     inkscape:window-x="1912"
     inkscape:window-y="353"
     inkscape:window-maximized="1" />
  <metadata
     id="metadata7">
    <rdf:RDF>
      <cc:Work
         rdf:about="">
        <dc:format>image/svg+xml</dc:format>
        <dc:type
           rdf:resource="http://purl.org/dc/dcmitype/StillImage" />
        <dc:title></dc:title>
      </cc:Work>
    </rdf:RDF>
  </metadata>
  <g
     inkscape:groupmode="layer"
     id="layer3"
     inkscape:label="rødtBanner">
    <rect
       style="opacity:1;fill:#ff0000;fill-opacity:1;stroke:#fd0000;stroke-opacity:0"
       id="rect4690"
       width="748.18292"
       height="93.216232"
       x="0"
       y="-1.0266495" />
  </g>
  <g
     inkscape:label="Layer 1"
     inkscape:groupmode="layer"
     id="layer1">
    <g
       inkscape:groupmode="layer"
       id="layer2"
       inkscape:label="Skrift">
      <text
         xml:space="preserve"
         style="font-style:normal;font-weight:normal;font-size:57.614048px;line-height:125%;font-family:sans-serif;letter-spacing:0px;word-spacing:0px;fill:#ffffff;fill-opacity:1;stroke:none;stroke-width:1px;stroke-linecap:butt;stroke-linejoin:miter;stroke-opacity:1;"
         x="16.936827"
         y="81.94989"
         id="text4685"
         sodipodi:linespacing="125%"><tspan
           sodipodi:role="line"
           id="tspan4687"
           x="16.936827"
           y="81.94989"
           style="font-style:normal;font-variant:normal;font-weight:normal;font-stretch:normal;font-size:57.614048px;line-height:125%;font-family:BritannicEFLight;-inkscape-font-specification:'BritannicEFLight, Normal';text-align:start;writing-mode:lr-tb;text-anchor:start;fill:#ffffff;">Kontraretur</tspan></text>
      <g
         id="g4708"
         transform="matrix(0.23054296,0,0,0.23054296,206.33515,-33.166715)">
        <path
           sodipodi:nodetypes="cccccc"
           inkscape:connector-curvature="0"
           id="path4698"
           d="m 274.74258,394.94246 -1.22652,101.80194 c 57.23804,-2.66309 114.47608,-0.0502 171.71411,-56.42035 27.82862,-33.59451 51.77922,-67.89412 44.15506,-107.93459 -41.75133,-89.19026 -81.52112,-90.45172 -101.80195,-99.34888 -76.80023,-17.7402 -95.86707,-8.83424 -133.69169,-8.5857"
           style="fill:none;fill-rule:evenodd;stroke:#000000;stroke-width:1px;stroke-linecap:butt;stroke-linejoin:miter;stroke-opacity:1" />
        <path
           sodipodi:nodetypes="ccccccc"
           inkscape:connector-curvature="0"
           id="path4700"
           d="m 273.51606,398.62205 c 46.86218,3.16022 96.1868,7.07812 101.80193,-2.45306 19.44798,-6.02093 37.78236,-16.49626 53.9673,-35.56935 6.00303,-11.19516 11.8612,-2.9653 12.26529,-40.47547 -6.91646,-32.61891 -40.47547,-52.74077 -40.47547,-52.74077 -26.57481,-20.53019 -58.05573,-15.86795 -84.63053,-20.851 l -58.87341,-3.67958"
           style="fill:none;fill-rule:evenodd;stroke:#000000;stroke-width:1px;stroke-linecap:butt;stroke-linejoin:miter;stroke-opacity:1" />
        <path
           sodipodi:nodetypes="ccccc"
           inkscape:connector-curvature="0"
           id="path4702"
           d="m 256.77828,223.8852 -1.66017,-30.09356 -55.19382,42.92853 57.64688,24.53059 -0.0744,-18.75718"
           style="fill:none;fill-rule:evenodd;stroke:#000000;stroke-width:1px;stroke-linecap:butt;stroke-linejoin:miter;stroke-opacity:1" />
        <path
           inkscape:connector-curvature="0"
           id="path4704"
           d="m 275.37165,447.74752 0,-47.93486 14.31024,1.31614 c 7.87063,0.72387 28.75057,1.32756 46.39986,1.34152 26.44093,0.021 33.00563,-0.4733 37.29335,-2.80755 2.86205,-1.5581 12.20234,-6.16771 20.75618,-10.2436 12.58307,-5.99578 18.14492,-10.00315 29.13071,-20.98894 7.46803,-7.46804 14.69352,-16.24747 16.05664,-19.50986 1.3631,-3.26238 2.63307,-12.21854 2.82214,-19.90257 0.31276,-12.71135 -0.16947,-14.98192 -5.34768,-25.18398 -10.28131,-20.2558 -37.11734,-42.90242 -58.88381,-49.69135 -11.37447,-3.54768 -61.2688,-9.19948 -100.27124,-11.35827 l -21.15036,-1.17067 -0.53182,8.62885 -0.53182,8.62885 -26.33486,-11.23919 -26.33485,-11.23918 23.73299,-18.49342 c 13.05315,-10.17138 24.79282,-19.14439 26.08816,-19.94002 1.93091,-1.18603 2.24337,1.256 1.73457,13.55662 l -0.62059,15.00323 7.5783,-1.13663 c 4.16807,-0.62514 22.12091,-1.20189 39.89522,-1.28166 26.42352,-0.1186 36.42908,0.57917 54.86638,3.82625 25.43146,4.47887 48.57867,11.63822 64.0924,19.82356 20.13838,10.62538 42.26983,36.42044 60.69745,70.74523 7.43629,13.85144 7.84865,15.34943 7.87611,28.61211 0.0498,24.01163 -8.96319,45.55801 -31.6023,75.54889 -36.44537,48.28056 -79.45232,67.74374 -158.73826,71.83841 l -22.98311,1.18695 0,-47.93486 z"
           style="opacity:1;fill:#ffffff;fill-opacity:1;stroke:#fd0000;stroke-width:1.73457444;stroke-opacity:0" />
        <path
           inkscape:connector-curvature="0"
           id="path4706"
           d="m 275.37165,447.72578 0,-47.95659 16.04481,1.33914 c 8.82465,0.73654 29.70459,1.35 46.39987,1.36326 25.26326,0.0201 31.22793,-0.4656 35.55877,-2.89532 2.86205,-1.60568 11.05792,-5.65333 18.21304,-8.99479 15.69992,-7.33189 30.70533,-19.25085 41.37723,-32.86639 7.89322,-10.07041 7.90919,-10.11891 8.61034,-26.15025 0.64334,-14.70901 0.29849,-16.92621 -4.09613,-26.33695 -10.00275,-21.42015 -42.65924,-47.57818 -65.90045,-52.78665 -11.22275,-2.51507 -65.23907,-8.08758 -93.07429,-9.60186 l -22.01814,-1.19782 -0.53133,8.5956 -0.53133,8.59559 -26.38269,-11.16498 -26.3827,-11.16498 4.70052,-3.83071 c 8.94648,-7.291 42.87044,-33.38539 45.14416,-34.725 1.8243,-1.07483 2.20621,1.565 1.90076,13.13846 l -0.38225,14.48356 17.17956,-0.86729 c 63.59816,-3.21067 113.30263,4.51236 149.00721,23.15257 20.17198,10.53114 46.08314,41.12468 62.25638,73.50666 5.59215,11.19655 6.25932,13.9825 6.25932,26.13743 0,23.66559 -9.20766,45.51913 -31.63129,75.07392 -37.00284,48.77053 -79.01472,67.80576 -158.73826,71.92304 l -22.98311,1.18695 0,-47.9566 z"
           style="opacity:1;fill:#ffffff;fill-opacity:1;stroke:#fd0000;stroke-width:1.73457444;stroke-opacity:0" />
      </g>
      <path
         style="opacity:1;fill:#ffffff;fill-opacity:1;stroke:#fd0000;stroke-width:0.28276768;stroke-opacity:0"
         d="m 269.64501,77.980263 c 0.10157,-1.762948 0.18527,-6.746674 0.18597,-11.074928 l 9.7e-4,-7.86956 3.88807,0.234833 c 2.13842,0.129156 6.94195,0.234833 10.67448,0.234833 6.39189,0 6.85218,-0.03517 7.91749,-0.604716 0.62209,-0.332597 2.39642,-1.197963 3.94296,-1.923043 3.64673,-1.709727 5.81285,-3.278858 8.46037,-6.128662 3.04355,-3.276085 3.39082,-4.107183 3.41341,-8.169074 l 0.0183,-3.28159 -1.21985,-2.467794 c -1.46939,-2.972615 -4.61759,-6.349809 -8.07065,-8.65769 -4.14382,-2.769557 -6.06137,-3.3302 -14.5355,-4.249813 -4.44805,-0.482692 -16.23708,-1.397148 -18.2357,-1.414504 -0.42456,-0.004 -0.49485,0.276834 -0.49485,1.975074 0,1.088658 -0.0889,1.979374 -0.19758,1.979374 -0.23545,0 -12.53288,-5.185749 -12.44575,-5.248295 0.0331,-0.02376 2.71268,-2.106429 5.95462,-4.628148 3.24193,-2.521725 5.92818,-4.544086 5.96944,-4.494138 0.0413,0.04997 0.15514,1.458705 0.25307,3.130564 0.1325,2.261955 0.0919,3.039753 -0.15857,3.039753 -0.20404,0 -0.23083,0.0897 -0.068,0.227755 0.14773,0.125263 1.85919,0.137315 3.80322,0.02681 6.12373,-0.34816 12.52848,-0.276303 16.03258,0.179883 7.23968,0.942503 13.48504,2.582313 17.47539,4.588427 5.91311,2.972755 10.90113,8.666272 15.43284,17.615641 l 1.4948,2.951983 -0.003,2.969057 c -0.003,3.501232 -0.48009,5.476103 -2.2326,9.243382 -2.03389,4.372141 -6.19527,10.148534 -9.61712,13.349514 -5.99041,5.603738 -12.72599,8.86763 -21.33445,10.338157 -2.67492,0.45694 -7.32954,0.873666 -12.83983,1.149564 l -3.64987,0.182744 0.18468,-3.205377 -7e-5,0 z"
         id="path4715"
         inkscape:connector-curvature="0" />
      <path
         style="opacity:1;fill:#ffffff;fill-opacity:1;stroke:#fdffff;stroke-width:0.28276768;stroke-opacity:1"
         d="m 269.75936,70.206562 c 0.0804,-6.041141 0.18348,-11.027051 0.22904,-11.079807 0.0456,-0.05276 2.97892,0.06029 6.51859,0.251317 8.44087,0.455443 14.35588,0.263704 15.84936,-0.513745 0.59786,-0.311223 2.55034,-1.274605 4.33885,-2.140851 1.90541,-0.922857 4.03087,-2.217588 5.13334,-3.126986 2.19167,-1.807848 5.23489,-5.248684 5.76565,-6.518964 0.64802,-1.55093 0.82906,-6.053205 0.31402,-7.809371 -1.09227,-3.724409 -4.75974,-8.105821 -9.30815,-11.120142 -4.03683,-2.675287 -5.82208,-3.182045 -14.48802,-4.112542 -4.5003,-0.483211 -16.32366,-1.420325 -18.02644,-1.42876 -0.42439,-0.002 -0.49485,0.279382 -0.49485,1.976918 0,1.088658 0.12132,3.064392 0.005,3.065501 -0.53878,0.0053 -12.69973,-6.315321 -12.51483,-6.475586 0.6579,-0.57028 11.67247,-9.031694 11.75692,-9.031694 0.0559,0 0.18491,1.360216 0.28664,3.022703 0.13935,2.277552 0.0977,3.079893 -0.16911,3.254705 -0.19473,0.1276 3.33607,0.152123 7.84621,0.05449 6.76399,-0.146428 8.81934,-0.0957 11.73486,0.289582 10.66511,1.409428 17.39535,3.690417 22.13207,7.50092 3.84444,3.092682 7.47755,7.929868 10.736,14.294005 l 1.73821,3.394973 -0.003,2.969058 c -0.003,3.474551 -0.48863,5.549911 -2.11009,9.020875 -2.83353,6.065548 -7.91576,12.496718 -12.77348,16.163799 -8.10802,6.120739 -14.92494,8.07357 -31.06958,8.900471 l -3.57348,0.183024 0.14622,-10.983889 1.1e-4,0 z"
         id="path4717"
         inkscape:connector-curvature="0"
         sodipodi:nodetypes="cccssssssscsccsscssssccssscccc" />
    </g>
  </g>
</svg>
